<svg xmlns="http://www.w3.org/2000/svg" xmlns:xlink="http://www.w3.org/1999/xlink" viewBox="0 0 279.13 139.53"><defs><clipPath id="clip-path" transform="translate(22.35 25.63)"><rect width="256.78" height="113.08" style="fill:none"/></clipPath><clipPath id="clip-path-2" transform="translate(22.35 25.63)"><path d="M28.87,21.27c-3.61.23-6.87,3.23-9.51,5.44-17.17,14.35-24,35-15.16,48.53,7.09,10.84,22.3,14.1,38.25,9.61-10.58,2.27-20.38-.29-25.13-7.55-6.63-10.14-1.07-25.84,12.39-36.17,3.06-2.5,7.08-4.19,8.28-8.32a9.09,9.09,0,0,0-1.12-7.51,8.88,8.88,0,0,0-7.44-4l-.56,0" style="fill:none"/></clipPath><linearGradient id="Degradado_sin_nombre" x1="-306.76" y1="188.37" x2="-304.69" y2="188.37" gradientTransform="matrix(20.36, 0, 0, -20.36, 6268.52, 3916.24)" gradientUnits="userSpaceOnUse"><stop offset="0" stop-color="#26a4de"/><stop offset="1" stop-color="#1c527d"/></linearGradient><clipPath id="clip-path-3" transform="translate(22.35 25.63)"><path d="M17.31,77.3c4.75,7.26,14.55,9.82,25.13,7.55a61.08,61.08,0,0,0,11.89-4.78c3.2-1.68,7.35-3.76,8.83-7.35a9.13,9.13,0,0,0-.8-8.44,8.88,8.88,0,0,0-9.08-3.89c-3,.56-5.75,3.19-8.4,4.6C32.55,71.52,20.75,72.47,17,66.69s1.78-16.59,12.73-25.56c-13.46,10.33-19,26-12.39,36.17" style="fill:none"/></clipPath><linearGradient id="Degradado_sin_nombre_2" x1="-307.84" y1="174.85" x2="-305.77" y2="174.85" gradientTransform="matrix(20.11, 0, 0, -20.11, 6203.99, 3580.2)" gradientUnits="userSpaceOnUse"><stop offset="0" stop-color="#c7c8ca"/><stop offset="0.01" stop-color="#c7c8ca"/><stop offset="0.15" stop-color="#c3c7c1"/><stop offset="0.38" stop-color="#b8c6a9"/><stop offset="0.67" stop-color="#a6c381"/><stop offset="1" stop-color="#8dc04b"/></linearGradient><clipPath id="clip-path-4" transform="translate(22.35 25.63)"><path d="M35.17,0A50.25,50.25,0,0,0,21.72,2C32.3-.31,42.1,2.24,46.85,9.51c6.63,10.14,1.06,25.83-12.39,36.17-3.06,2.5-7.08,4.19-8.27,8.32a9.08,9.08,0,0,0,1.12,7.52,8.88,8.88,0,0,0,8,4c3.61-.23,6.86-3.22,9.51-5.44C62,45.75,68.81,25.09,60,11.57,55,3.89,45.86,0,35.32,0Z" style="fill:none"/></clipPath><linearGradient id="Degradado_sin_nombre_3" x1="-306.22" y1="188.97" x2="-304.15" y2="188.97" gradientTransform="matrix(20.36, 0, 0, -20.36, 6279.24, 3906.18)" gradientUnits="userSpaceOnUse"><stop offset="0" stop-color="#1c527d"/><stop offset="1" stop-color="#26a4de"/></linearGradient><clipPath id="clip-path-5" transform="translate(22.35 25.63)"><path d="M21.72,2A61.93,61.93,0,0,0,9.83,6.73C6.63,8.42,2.48,10.49,1,14.09a9.09,9.09,0,0,0,.79,8.43,8.88,8.88,0,0,0,9.08,3.89c3-.56,5.75-3.19,8.4-4.6,12.31-6.53,24.12-7.47,27.91-1.69S45.41,36.71,34.46,45.68c13.45-10.33,19-26,12.39-36.17C43.22,4,36.64,1.15,29,1.15a35,35,0,0,0-7.3.8" style="fill:none"/></clipPath><linearGradient id="Degradado_sin_nombre_4" x1="-316.36" y1="197.49" x2="-314.29" y2="197.49" gradientTransform="matrix(0, 22.73, 22.73, 0, -4463.09, 7190.11)" gradientUnits="userSpaceOnUse"><stop offset="0" stop-color="#8dc04b"/><stop offset="0.33" stop-color="#a6c381"/><stop offset="0.62" stop-color="#b8c6a9"/><stop offset="0.85" stop-color="#c3c7c1"/><stop offset="0.99" stop-color="#c7c8ca"/><stop offset="1" stop-color="#c7c8ca"/></linearGradient></defs><title>Ilustración 1</title><g id="Capa_2" data-name="Capa 2"><g id="Capa_2-2" data-name="Capa 2"><g id="Ilustración_1" data-name="Ilustración 1"><g style="clip-path:url(#clip-path)"><g style="clip-path:url(#clip-path-2)"><rect x="17.71" y="46.88" width="47.09" height="68.09" style="fill:url(#Degradado_sin_nombre)"/></g><g style="clip-path:url(#clip-path-3)"><rect x="2.27" y="28.92" width="70.4" height="70.4" transform="translate(-12.01 70.91) rotate(-45)" style="fill:url(#Degradado_sin_nombre_2)"/></g><g style="clip-path:url(#clip-path-4)"><rect x="44.07" y="25.32" width="47.09" height="66.04" style="fill:url(#Degradado_sin_nombre_3)"/></g><g style="clip-path:url(#clip-path-5)"><rect x="-7.99" y="-11.27" width="69.36" height="69.36" transform="translate(13.61 51.36) rotate(-45)" style="fill:url(#Degradado_sin_nombre_4)"/></g><g style="clip-path:url(#clip-path)"><path d="M89.66,81.26a10.15,10.15,0,0,1,3.83-.09,7.28,7.28,0,0,1,2.81,1.05,2.32,2.32,0,0,1,1.14,1.67q.09.95-1.15,1.77a3.86,3.86,0,0,1-1.94.84,16.35,16.35,0,0,1-3.25.28A31.85,31.85,0,0,1,87,86.52a36.16,36.16,0,0,1-4.34-.83,28.22,28.22,0,0,1-4.08-1.38,14.67,14.67,0,0,1-3.33-1.93,12.12,12.12,0,0,1-3.87-2.49,7.36,7.36,0,0,1-1.09-1.4,5,5,0,0,1-.64-1.72,5.17,5.17,0,0,1,.09-2,7.23,7.23,0,0,1,1.08-2.34,17.21,17.21,0,0,1,2.78-3.2,26.13,26.13,0,0,1,3.62-2.77,27.08,27.08,0,0,1,4-2.09,17.67,17.67,0,0,1,3.87-1.17,8.73,8.73,0,0,1,3.33,0,3.83,3.83,0,0,1,2.32,1.42,14.86,14.86,0,0,1,1.59,1.91,9.54,9.54,0,0,1,1.2,2.25,6.38,6.38,0,0,1,.4,2.37,4,4,0,0,1-.8,2.26,7,7,0,0,1-2.41,2,16.16,16.16,0,0,1-4.42,1.45,25.72,25.72,0,0,1-4.17,1.13,18.26,18.26,0,0,1-2.72.27,5.29,5.29,0,0,1-2-.3A1.5,1.5,0,0,0,78,79a4.5,4.5,0,0,0,1.37.84,11.3,11.3,0,0,0,2,.59c.73.16,1.48.29,2.25.38a53.41,53.41,0,0,0,6.09.41M78.12,71.73a2.15,2.15,0,0,0,.18.77,1.49,1.49,0,0,0,.44.52,1.41,1.41,0,0,0,.86.22q1.74-.44,3.37-.95,1.39-.42,2.94-.95a19.46,19.46,0,0,0,2.68-1.12,1.94,1.94,0,0,0,.6-.86.37.37,0,0,0-.24-.43,2.26,2.26,0,0,0-.81-.16c-.36,0-.72,0-1.1,0a1.14,1.14,0,0,0-.8-.28,5.41,5.41,0,0,0-1.21.13,10.34,10.34,0,0,0-1.45.44q-.77.3-1.54.65-1.8.83-3.93,2" transform="translate(22.35 25.63)" style="fill:#95d600"/><path d="M104.53,41.06c.12,0,.19-.1.21-.3s0-.42.07-.68a4.07,4.07,0,0,1,.16-.75.89.89,0,0,1,.47-.55c.08-.08.25-.07.5,0a3.17,3.17,0,0,1,.83.46,6.38,6.38,0,0,1,.9.83,4.21,4.21,0,0,1,.72,1.09,2.9,2.9,0,0,1,.25,1.27,2.57,2.57,0,0,1-.46,1.36,7.09,7.09,0,0,0-.4,1.94c-.15,1.11-.3,2.55-.46,4.29s-.32,3.72-.47,5.92-.3,4.47-.43,6.8-.24,4.65-.33,7S106,74.15,106,76.1s0,3.63.06,5a13.48,13.48,0,0,0,.36,3,.71.71,0,0,1,0,.74,1,1,0,0,1-.59.37,2.62,2.62,0,0,1-.95,0,3.43,3.43,0,0,1-1-.26,2.7,2.7,0,0,1-.82-.55,1.08,1.08,0,0,1-.34-.78q-.68-11.22-.8-20.28,0-2.58,0-5.14t.12-4.93c.06-1.58.15-3.06.28-4.45s.3-2.63.5-3.72a15.58,15.58,0,0,1,.73-2.69,2.74,2.74,0,0,1,1-1.42" transform="translate(22.35 25.63)" style="fill:#95d600"/><path d="M131.68,79.66q3.49.18,6.68.24l2.8,0q1.43,0,2.78,0c.89,0,1.74,0,2.53-.09s1.48-.1,2.07-.18a5,5,0,0,1,2,.08,3.32,3.32,0,0,1,1.3.65,2.6,2.6,0,0,1,.74,1,4.61,4.61,0,0,1,.31,1.17,4.45,4.45,0,0,1,0,1.13,2.81,2.81,0,0,1-.22.83,3.07,3.07,0,0,1-1.42.69,15.61,15.61,0,0,1-2.34.39c-.91.09-1.92.14-3,.16s-2.27,0-3.47,0-2.42,0-3.66-.06-2.43,0-3.59,0a41.93,41.93,0,0,1-4.5-.2,8.07,8.07,0,0,1-3.3-1.05,7.36,7.36,0,0,1-2.44-2.53A19.46,19.46,0,0,1,123,77.27a6.17,6.17,0,0,1-.09-4.08,10.74,10.74,0,0,1,2.17-3.73,19.39,19.39,0,0,1,3.68-3.23,34,34,0,0,1,4.47-2.59,31.07,31.07,0,0,1,4.5-1.78,19.36,19.36,0,0,1,3.78-.82,7.18,7.18,0,0,1,2.6.4,4.12,4.12,0,0,1,1.57,1,3.19,3.19,0,0,1,.75,1.34,5,5,0,0,1,.18,1.41,4.56,4.56,0,0,1-.16,1.18,1.68,1.68,0,0,1-.3.65,2.33,2.33,0,0,1-1.05.24l-2.26.24q-1.36.15-3.08.43a25.64,25.64,0,0,0-3.46.83,19.82,19.82,0,0,0-3.42,1.44,11.58,11.58,0,0,0-3,2.25,9.93,9.93,0,0,0-1.42,2,4.57,4.57,0,0,0-.5,1.61,2.48,2.48,0,0,0,.19,1.26,2.89,2.89,0,0,0,.67.93,5.76,5.76,0,0,0,2.84,1.36" transform="translate(22.35 25.63)" style="fill:#95d600"/><path d="M155.93,61.25a2,2,0,0,1,1.14-.89,1.62,1.62,0,0,1,1.11.16,3.67,3.67,0,0,1,1,.83,9.67,9.67,0,0,1,.89,1.15l.72,1.11a7,7,0,0,0,.5.71,3.51,3.51,0,0,1,.59,1.36q.29,1.07.59,2.64t.53,3.46c.16,1.26.28,2.55.37,3.85s.14,2.56.16,3.77a27.93,27.93,0,0,1-.12,3.24,8.87,8.87,0,0,1-.49,2.28q-.34.86-.9.86a1.89,1.89,0,0,1-1.12-.42,5.62,5.62,0,0,1-1.08-1.06,9.09,9.09,0,0,1-.95-1.48,15,15,0,0,1-.75-1.69,11.6,11.6,0,0,1-.5-1.66,6.35,6.35,0,0,1-.18-1.36q-.65-3-1.15-5.48-.24-1-.44-2.06t-.35-1.85l-.25-1.39a5.29,5.29,0,0,1-.1-.71q0-.29,0-1.07t.09-1.63c0-.57.12-1.11.22-1.63a2.07,2.07,0,0,1,.44-1.07m2.31-15.34a6.79,6.79,0,0,1-.86-1.63,2.37,2.37,0,0,1-.12-1.27,1.28,1.28,0,0,1,1-.92,3,3,0,0,1,1.46-.19,2.69,2.69,0,0,1,1,.38,3.36,3.36,0,0,1,.74.67c.2.26.4.49.58.68a4.8,4.8,0,0,1,.44,1.38c.1.54.17,1.1.22,1.67s.08,1.14.09,1.69,0,1,0,1.39-.16.61-.49.65a3.52,3.52,0,0,1-1.14-.07,9.17,9.17,0,0,1-1.27-.36,3.1,3.1,0,0,0-.92-.22,5.77,5.77,0,0,0-.12-.93q-.12-.64-.27-1.29t-.38-1.63" transform="translate(22.35 25.63)" style="fill:#95d600"/><path d="M178.13,79.66q3.49.18,6.69.24l2.79,0c1,0,1.88,0,2.78,0s1.74,0,2.53-.09,1.48-.1,2.07-.18a5,5,0,0,1,2,.08,3.36,3.36,0,0,1,1.3.65,2.61,2.61,0,0,1,.74,1,4.53,4.53,0,0,1,.31,1.17,4.27,4.27,0,0,1,0,1.13,2.81,2.81,0,0,1-.22.83,3,3,0,0,1-1.42.69,15.6,15.6,0,0,1-2.34.39c-.91.09-1.92.14-3,.16s-2.27,0-3.48,0-2.42,0-3.65-.06-2.43,0-3.59,0a42,42,0,0,1-4.5-.2,8,8,0,0,1-3.3-1.05,7.35,7.35,0,0,1-2.44-2.53,19.46,19.46,0,0,1-1.89-4.62,6.2,6.2,0,0,1-.09-4.08,10.78,10.78,0,0,1,2.17-3.73,19.39,19.39,0,0,1,3.68-3.23,33.71,33.71,0,0,1,4.47-2.59,31.24,31.24,0,0,1,4.49-1.78A19.36,19.36,0,0,1,188,61a7.19,7.19,0,0,1,2.6.4,4.12,4.12,0,0,1,1.56,1,3.24,3.24,0,0,1,.76,1.34,5.1,5.1,0,0,1,.18,1.41,4.55,4.55,0,0,1-.16,1.18,1.68,1.68,0,0,1-.3.65,2.32,2.32,0,0,1-1.05.24l-2.26.24c-.91.1-1.93.24-3.08.43a25.74,25.74,0,0,0-3.46.83,19.93,19.93,0,0,0-3.42,1.44,11.66,11.66,0,0,0-3,2.25,10,10,0,0,0-1.42,2,4.6,4.6,0,0,0-.5,1.61,2.43,2.43,0,0,0,.19,1.26,2.92,2.92,0,0,0,.67.93,5.75,5.75,0,0,0,2.84,1.36" transform="translate(22.35 25.63)" style="fill:#95d600"/><path d="M204.75,41.06c.12,0,.19-.1.21-.3s0-.42.07-.68a3.91,3.91,0,0,1,.16-.75.89.89,0,0,1,.47-.55c.08-.08.25-.07.5,0a3.22,3.22,0,0,1,.83.46,6.26,6.26,0,0,1,.9.83,4.11,4.11,0,0,1,.72,1.09,2.88,2.88,0,0,1,.25,1.27,2.57,2.57,0,0,1-.46,1.36,7.09,7.09,0,0,0-.4,1.94c-.15,1.11-.3,2.55-.46,4.29s-.32,3.72-.48,5.92-.3,4.47-.43,6.8-.24,4.65-.32,7-.14,4.44-.16,6.38,0,3.63.06,5a13.23,13.23,0,0,0,.36,3,.7.7,0,0,1,0,.74,1,1,0,0,1-.59.37,2.62,2.62,0,0,1-.95,0,3.41,3.41,0,0,1-1-.26,2.73,2.73,0,0,1-.82-.55,1.09,1.09,0,0,1-.34-.78q-.68-11.22-.8-20.28,0-2.58,0-5.14t.12-4.93c.06-1.58.15-3.06.28-4.45s.3-2.63.5-3.72a15.79,15.79,0,0,1,.72-2.69,2.74,2.74,0,0,1,1-1.42" transform="translate(22.35 25.63)" style="fill:#95d600"/><path d="M236.84,71.6a12.4,12.4,0,0,0-1.09-3.27,10.22,10.22,0,0,0-1.92-2.69,8.12,8.12,0,0,0-2.17-1.51,14.62,14.62,0,0,0-2.9-1.05l-.54-.12v4.14h.34a2.05,2.05,0,0,1,1.39.49,3.93,3.93,0,0,1,.93,1.24,7.23,7.23,0,0,1,.56,1.66q.19.91.29,1.78a15.63,15.63,0,0,1,.12,1.57c0,.46,0,.8,0,1s-.2.71-.71,1.13a10.39,10.39,0,0,1-2.06,1.23,24.68,24.68,0,0,1-3,1.15,23.47,23.47,0,0,1-3.49.85,6.86,6.86,0,0,1-1.71.07,6,6,0,0,1-1.49-.32,8,8,0,0,1-1.3-.61,7.09,7.09,0,0,1-1.08-.77,9.33,9.33,0,0,1-2-2.25,1.1,1.1,0,0,1-.15-.74,5.18,5.18,0,0,1,.28-1.17,9.86,9.86,0,0,1,1-1.94A4.92,4.92,0,0,1,217.56,70a10,10,0,0,1,2-1.12,16.12,16.12,0,0,1,1.87-.68V62.86a15.17,15.17,0,0,0-3,.91,11.66,11.66,0,0,0-3.08,1.92,11.91,11.91,0,0,0-2.44,3,13.08,13.08,0,0,0-1.51,4.11,24.85,24.85,0,0,0,.62,4.17c.14.55.3,1.12.49,1.69a11.22,11.22,0,0,0,.68,1.64,8.32,8.32,0,0,0,.92,1.44,4.11,4.11,0,0,0,1.2,1q.86.53,1.79,1.15a21.78,21.78,0,0,0,2,1.17,13.87,13.87,0,0,0,2.26.93,8.9,8.9,0,0,0,2.65.4,12,12,0,0,0,3.12-.41,16.3,16.3,0,0,0,3.67-1.5,12.13,12.13,0,0,0,3.3-2.59A11.68,11.68,0,0,0,237,75.15a12.87,12.87,0,0,0-.16-3.55" transform="translate(22.35 25.63)" style="fill:#95d600"/><rect x="245.86" y="84.38" width="2.58" height="13.89" style="fill:#95d600"/><path d="M76.33,31.44q2.58.13,4.94.18l2.07,0q1.06,0,2.06,0l1.87-.07c.59,0,1.09-.07,1.53-.13a3.74,3.74,0,0,1,1.44.06,2.5,2.5,0,0,1,1,.48,2,2,0,0,1,.55.74,3.43,3.43,0,0,1,.23.86,3.11,3.11,0,0,1,0,.83,2,2,0,0,1-.16.61,2.27,2.27,0,0,1-1.05.51,11.86,11.86,0,0,1-1.73.29c-.67.06-1.42.11-2.24.12s-1.68,0-2.57,0l-2.7,0q-1.37,0-2.66,0a30.22,30.22,0,0,1-3.33-.16A5.9,5.9,0,0,1,73.11,35a5.47,5.47,0,0,1-1.81-1.87,14.38,14.38,0,0,1-1.4-3.42,4.56,4.56,0,0,1-.07-3,8,8,0,0,1,1.61-2.76,14.21,14.21,0,0,1,2.72-2.39,24.66,24.66,0,0,1,3.3-1.92,22.94,22.94,0,0,1,3.32-1.31,14.41,14.41,0,0,1,2.8-.6,5.28,5.28,0,0,1,1.92.3,3,3,0,0,1,1.16.76,2.39,2.39,0,0,1,.56,1,3.68,3.68,0,0,1,.13,1,3.36,3.36,0,0,1-.12.88,1.27,1.27,0,0,1-.22.48,1.72,1.72,0,0,1-.78.17l-1.67.18q-1,.11-2.28.32a18.13,18.13,0,0,0-2.56.61,15,15,0,0,0-2.53,1.06A8.58,8.58,0,0,0,75,26.12,7.25,7.25,0,0,0,74,27.62a3.38,3.38,0,0,0-.37,1.19,1.87,1.87,0,0,0,.14.93,2.21,2.21,0,0,0,.49.69,4.27,4.27,0,0,0,2.1,1" transform="translate(22.35 25.63)" style="fill:#00a1df"/><path d="M105.87,32.62a7.47,7.47,0,0,1,2.83-.06,5.36,5.36,0,0,1,2.08.78,1.72,1.72,0,0,1,.84,1.24c0,.47-.24.91-.85,1.31a2.81,2.81,0,0,1-1.43.62,12,12,0,0,1-2.41.21,23.35,23.35,0,0,1-3-.21,26.44,26.44,0,0,1-3.2-.61,20.85,20.85,0,0,1-3-1,10.8,10.8,0,0,1-2.46-1.42,9,9,0,0,1-2.87-1.84,5.46,5.46,0,0,1-.81-1,3.68,3.68,0,0,1-.47-1.27,3.76,3.76,0,0,1,.06-1.5,5.33,5.33,0,0,1,.8-1.73A12.63,12.63,0,0,1,94,23.71a19.44,19.44,0,0,1,2.68-2,19.79,19.79,0,0,1,2.94-1.54,13.1,13.1,0,0,1,2.87-.86,6.49,6.49,0,0,1,2.46,0,2.82,2.82,0,0,1,1.71,1.05,11.11,11.11,0,0,1,1.18,1.41,7,7,0,0,1,.89,1.67,4.67,4.67,0,0,1,.3,1.75,3,3,0,0,1-.59,1.68,5.18,5.18,0,0,1-1.78,1.44,11.94,11.94,0,0,1-3.27,1.07,18.58,18.58,0,0,1-3.08.83,13.39,13.39,0,0,1-2,.2,3.92,3.92,0,0,1-1.44-.22,1.1,1.1,0,0,0,.38.82,3.37,3.37,0,0,0,1,.62A8.44,8.44,0,0,0,99.7,32q.81.18,1.66.28a39.33,39.33,0,0,0,4.51.31m-8.53-7a1.67,1.67,0,0,0,.13.57,1,1,0,0,0,.33.38,1,1,0,0,0,.63.17c.86-.22,1.69-.45,2.49-.7s1.41-.44,2.18-.7a13.7,13.7,0,0,0,2-.83,1.49,1.49,0,0,0,.45-.64.28.28,0,0,0-.18-.32,1.72,1.72,0,0,0-.6-.12l-.81,0a.84.84,0,0,0-.59-.21,3.73,3.73,0,0,0-.9.1,7.68,7.68,0,0,0-1.07.33c-.38.15-.76.31-1.14.48q-1.33.61-2.91,1.51" transform="translate(22.35 25.63)" style="fill:#00a1df"/><path d="M113.68,32.84q0-3-.09-5.34,0-1-.06-2t-.08-1.74c0-.51-.06-.93-.09-1.26a1.4,1.4,0,0,0-.11-.56c-.09-.06-.06-.17.09-.35a1.55,1.55,0,0,1,.62-.43,1.86,1.86,0,0,1,.93-.1,1.7,1.7,0,0,1,1,.64,3.07,3.07,0,0,1,.63,1.25,9.71,9.71,0,0,1,.21,1.23c0,.38.07.71.12,1a.65.65,0,0,0,.39.56c.13.06.41,0,.82-.32s.91-.61,1.5-1l1.92-1.4a24.47,24.47,0,0,1,2.12-1.39,13.42,13.42,0,0,1,2.1-1,3.62,3.62,0,0,1,1.84-.25,14.42,14.42,0,0,1,2.13.49,1.75,1.75,0,0,1,1.13.78c.15.32,0,.72-.44,1.19a10.65,10.65,0,0,1-2.54,1.74l-3.54,2a19,19,0,0,0-3,2,10.73,10.73,0,0,0-2.16,2.43A8.61,8.61,0,0,0,118,34.2a4.29,4.29,0,0,1-.43,1.44,1,1,0,0,1-.6.54,1,1,0,0,1-.7-.13,3.39,3.39,0,0,1-.74-.58,12.3,12.3,0,0,1-1.86-2.63" transform="translate(22.35 25.63)" style="fill:#00a1df"/><path d="M133,32.84q0-3-.09-5.34,0-1-.06-2c0-.65,0-1.23-.08-1.74s-.06-.93-.09-1.26a1.35,1.35,0,0,0-.11-.56c-.09-.06-.06-.17.09-.35a1.59,1.59,0,0,1,.62-.43,1.86,1.86,0,0,1,.93-.1,1.69,1.69,0,0,1,1,.64,3.07,3.07,0,0,1,.63,1.25A9,9,0,0,1,136,24.2c0,.38.08.71.12,1a.64.64,0,0,0,.39.56c.13.06.4,0,.82-.32s.91-.61,1.5-1l1.92-1.4a24.47,24.47,0,0,1,2.12-1.39,13.44,13.44,0,0,1,2.1-1,3.62,3.62,0,0,1,1.84-.25,14.55,14.55,0,0,1,2.13.49,1.75,1.75,0,0,1,1.13.78c.14.32,0,.72-.44,1.19a10.72,10.72,0,0,1-2.54,1.74l-3.54,2a19,19,0,0,0-3,2,10.7,10.7,0,0,0-2.17,2.43,8.64,8.64,0,0,0-1.2,3.26,4.11,4.11,0,0,1-.43,1.44,1,1,0,0,1-.6.54,1,1,0,0,1-.7-.13,3.39,3.39,0,0,1-.75-.58A12.3,12.3,0,0,1,133,32.84" transform="translate(22.35 25.63)" style="fill:#00a1df"/><path d="M172.14,28.79a5.12,5.12,0,0,1-1.15-1.7,7.43,7.43,0,0,1-.53-2.44,19.26,19.26,0,0,1,.19-3.66c.06-.42-.19-.83-.73-1.21a6.41,6.41,0,0,0-2.3-.91,16.12,16.12,0,0,0-3.47-.33,19.23,19.23,0,0,0-4.22.5,23.77,23.77,0,0,0-4.58,1.58,20.34,20.34,0,0,0-4.56,2.91,7,7,0,0,0-1.17,1.66,6,6,0,0,0-.6,2.17,7.47,7.47,0,0,0,.29,2.65,10.75,10.75,0,0,0,1.49,3.09c.57.48,1.12.91,1.66,1.29a12.13,12.13,0,0,0,1.44.9,2.87,2.87,0,0,0,1.31.39q.55,0,1.32.07a7.31,7.31,0,0,0,1.81-.11,10.88,10.88,0,0,0,2.35-.73,14.74,14.74,0,0,0,3-1.81q1.64-1.25,2.58-2.08a19.35,19.35,0,0,0,1.42-1.36,3.51,3.51,0,0,0,.72-1,13.93,13.93,0,0,1,1,1.38q.54.83,1.17,1.71a21.59,21.59,0,0,0,1.35,1.69c.42.47.53.79,1.06.56,3.37-1.48,1.52-3.08,1.52-3.08Zm-6.69-4.64a9.3,9.3,0,0,1-.5,1.15,11.85,11.85,0,0,1-.82,1.36A11.42,11.42,0,0,1,163,28a10.18,10.18,0,0,1-1.43,1.25,6.76,6.76,0,0,1-1.73.9,13.42,13.42,0,0,1-1.88.55,9.28,9.28,0,0,1-1.78.21,6.3,6.3,0,0,1-1.53-.15,2.69,2.69,0,0,1-1.14-.55,1.81,1.81,0,0,1-.59-1,2.84,2.84,0,0,1,.12-1.45,8.48,8.48,0,0,1,1.4-2,11.28,11.28,0,0,1,1.89-1.61,8.21,8.21,0,0,1,2.83-1.2,20.22,20.22,0,0,1,2.88-.46,10.67,10.67,0,0,1,2,0,3.22,3.22,0,0,1,1.19.33c.26.16.4.32.4.49a2.59,2.59,0,0,1-.17.77" transform="translate(22.35 25.63)" style="fill:#00a1df"/><path d="M217.49,5.87V7.41q0,1.35,0,3.44t0,4.71q0,2.62,0,5.35t.09,5.37q.05,2.64.12,4.76t.16,3.53a6.71,6.71,0,0,0,.23,1.66c.09.26,0,.41-.23.43a2,2,0,0,1-.84-.13,4,4,0,0,1-.91-.45c-.28-.19-.42-.37-.42-.55a3.74,3.74,0,0,0,0-.44c0-.2-.07-.44-.12-.72l-.17-.9c-.07-.32-.13-.64-.19-1q-.24-1.14-.5-2.5a7.52,7.52,0,0,1-1.25,1.86,9.62,9.62,0,0,1-1.81,1.49,8.68,8.68,0,0,1-2.81,1.14,10.75,10.75,0,0,1-2.18.32,12.32,12.32,0,0,1-2.27-.1,10.07,10.07,0,0,1-2.12-.53,6.87,6.87,0,0,1-1.77-1,4.39,4.39,0,0,1-1.21-1.39,3.72,3.72,0,0,1-.45-1.84c0-.12,0-.37.05-.76a11.32,11.32,0,0,1,.23-1.38,11.09,11.09,0,0,1,.53-1.71,7.6,7.6,0,0,1,1-1.73A6.76,6.76,0,0,1,202.19,23a5.7,5.7,0,0,1,2.2-.91,13.74,13.74,0,0,0,1.43-.09q.82-.09,1.75-.15t1.9-.06a9,9,0,0,1,1.85.21,5.32,5.32,0,0,1,1.58.62,3.25,3.25,0,0,1,1.15,1.19,5.54,5.54,0,0,1,.35.83,1.25,1.25,0,0,0,.33.55q-.13-1.29-.23-3t-.17-3.74q-.07-2-.07-4.12t.08-4.15q.08-2,.25-3.83a28.41,28.41,0,0,1,.47-3.19A9.14,9.14,0,0,1,215.8.9c.29-.56.62-.85,1-.9a2.09,2.09,0,0,1,1.27.32,1.36,1.36,0,0,1,.52.82,2.81,2.81,0,0,1,0,1.15,11.79,11.79,0,0,1-.34,1.29q-.21.65-.43,1.25a7.12,7.12,0,0,0-.3,1M214.06,28a1.43,1.43,0,0,0,.25-.37,3.9,3.9,0,0,0,.22-.54,4.53,4.53,0,0,0,.16-.6,3.34,3.34,0,0,0,.05-.57,1.47,1.47,0,0,1-.15-.45.85.85,0,0,0-.05-.25s-.06,0-.12,0l-.35.34a.52.52,0,0,1-.55.24,4.21,4.21,0,0,1-1-.19c-.37-.11-.76-.24-1.16-.38s-.78-.26-1.13-.35a9.84,9.84,0,0,0-1.57.15,10.16,10.16,0,0,0-1.92.54,9.45,9.45,0,0,0-2,1.05,7.34,7.34,0,0,0-1.74,1.7,3.81,3.81,0,0,0-.65,1,1.82,1.82,0,0,0-.18.77,1.19,1.19,0,0,0,.18.6,1.86,1.86,0,0,0,.4.46,3.76,3.76,0,0,0,1.6.68,2,2,0,0,0,.59.13,5,5,0,0,0,.85,0,10.86,10.86,0,0,0,1.31-.15,8,8,0,0,0,1.47-.15,7.27,7.27,0,0,0,1.72-.57,9.8,9.8,0,0,0,1.85-1.16A11.38,11.38,0,0,0,214.06,28" transform="translate(22.35 25.63)" style="fill:#00a1df"/><path d="M234.67,20.12a7.64,7.64,0,0,1,1.42,2,9.17,9.17,0,0,1,.81,2.42,9.75,9.75,0,0,1,.12,2.63,8.68,8.68,0,0,1-2.17,5,9.09,9.09,0,0,1-2.44,1.92,12.1,12.1,0,0,1-2.71,1.1,9,9,0,0,1-2.31.31,6.74,6.74,0,0,1-2-.3,10.31,10.31,0,0,1-1.67-.69,15.54,15.54,0,0,1-1.47-.86L221,32.77a3,3,0,0,1-.89-.77,6.23,6.23,0,0,1-.68-1.06,8.3,8.3,0,0,1-.5-1.22q-.21-.63-.36-1.25a18.17,18.17,0,0,1-.46-3.09,9.61,9.61,0,0,1,1.12-3,8.74,8.74,0,0,1,1.8-2.19,8.6,8.6,0,0,1,2.27-1.42,11.29,11.29,0,0,1,2.55-.74,11.79,11.79,0,0,1,2.61-.14,13.52,13.52,0,0,1,2.47.37,10.88,10.88,0,0,1,2.15.78,6,6,0,0,1,1.61,1.12m-8.25,10a17.28,17.28,0,0,0,2.58-.62,19.09,19.09,0,0,0,2.2-.85,7.56,7.56,0,0,0,1.52-.91c.38-.31.55-.59.52-.83s0-.41,0-.76,0-.73-.09-1.16-.13-.87-.22-1.31a5.45,5.45,0,0,0-.42-1.23,2.9,2.9,0,0,0-.69-.92,1.52,1.52,0,0,0-1-.36q-.61,0-1.42.08c-.54.05-1.11.13-1.71.24s-1.21.25-1.82.42a12.55,12.55,0,0,0-1.73.61,7.41,7.41,0,0,0-1.45.83,3.6,3.6,0,0,0-1,1.06,7.14,7.14,0,0,0-.73,1.44,3.77,3.77,0,0,0-.21.86.84.84,0,0,0,.11.55,7,7,0,0,0,1.46,1.66,5.18,5.18,0,0,0,.8.57,5.76,5.76,0,0,0,1,.45,4.46,4.46,0,0,0,1.1.24,4.94,4.94,0,0,0,1.27-.06" transform="translate(22.35 25.63)" style="fill:#00a1df"/><path d="M198,32.69a29.72,29.72,0,0,0-1.83-3.55,17.85,17.85,0,0,0-2.49-3.33,12.85,12.85,0,0,0-2.49-2,8.12,8.12,0,0,0-2.36-1,10,10,0,0,0-2.23-.27,9.86,9.86,0,0,0-2,.18c-.62.13-1.18.26-1.66.4l-1.22.34a2.16,2.16,0,0,1-.55.08,1,1,0,0,1-.52-.13.68.68,0,0,1-.22-.16c-.22-.24-.26-.57-.19-1.41a3.39,3.39,0,0,1,.18-.74,1.83,1.83,0,0,0,.12-1.22,1.72,1.72,0,0,0-1.52-.76,1.67,1.67,0,0,0-1.61,1.17,17.24,17.24,0,0,0-.86,5.87c0,1.13-.08,2.31-.23,3.49a6.47,6.47,0,0,0,0,2.19,2.1,2.1,0,0,0,.49,1,1,1,0,0,0,.67.29h.09a2.69,2.69,0,0,0,.95-.18,4.05,4.05,0,0,0,1.87-1.49,12.73,12.73,0,0,1,2.4-3.3,5.94,5.94,0,0,1,2.55-1.47,4.58,4.58,0,0,1,2.58.11,8.46,8.46,0,0,1,2.28,1.2,15.52,15.52,0,0,1,2,1.78c.62.65,1.21,1.3,1.73,1.92l1.4,1.67a4.75,4.75,0,0,0,.86.87l.89.41a3.62,3.62,0,0,0,.93.3l.18,0a.56.56,0,0,0,.25,0,.94.94,0,0,0,0-.37,6.43,6.43,0,0,0-.55-1.9" transform="translate(22.35 25.63)" style="fill:#00a1df"/><path d="M251.91,9.08a2,2,0,0,1-.4,1.25,2,2,0,0,1-1.11.69,1.88,1.88,0,0,1,.72.26,1.31,1.31,0,0,1,.43.45,1.7,1.7,0,0,1,.21.62,4.83,4.83,0,0,1,.05.76v1.65h-.74V13.18a3.73,3.73,0,0,0-.08-.85,1.31,1.31,0,0,0-.29-.58,1.2,1.2,0,0,0-.55-.33,3,3,0,0,0-.86-.11h-1.35v3.44h-.75V7h2.34a3.79,3.79,0,0,1,1,.11,2.05,2.05,0,0,1,.76.36,1.68,1.68,0,0,1,.49.64,2.31,2.31,0,0,1,.18,1m-.75,0A1.42,1.42,0,0,0,250.73,8a2.07,2.07,0,0,0-1.42-.4h-1.38v3.1h1.33a2.94,2.94,0,0,0,.7-.08,1.71,1.71,0,0,0,.61-.28,1.42,1.42,0,0,0,.42-.5,1.6,1.6,0,0,0,.16-.75" transform="translate(22.35 25.63)" style="fill:#2b9ed9"/><path d="M249.32,18.55a7.46,7.46,0,1,1,7.46-7.46,7.47,7.47,0,0,1-7.46,7.46m0-14.29a6.84,6.84,0,1,0,6.84,6.84,6.84,6.84,0,0,0-6.84-6.84" transform="translate(22.35 25.63)" style="fill:#2b9ed9"/><path d="M55.25,112.85v-4.33h-3v4.33H50.58v-7.06a3.12,3.12,0,0,1,.81-2.34,3.25,3.25,0,0,1,2.36-.79,3.21,3.21,0,0,1,2.37.79,3.15,3.15,0,0,1,.79,2.33v7.06Zm0-6.8a4.79,4.79,0,0,0-.06-.79,2,2,0,0,0-.23-.66,1.2,1.2,0,0,0-.46-.46,1.54,1.54,0,0,0-.75-.17,1.48,1.48,0,0,0-.75.17,1.27,1.27,0,0,0-.46.46,1.92,1.92,0,0,0-.23.66,4.71,4.71,0,0,0-.06.77v1.17h3Z" transform="translate(22.35 25.63)" style="fill:#2b2b2a"/><path d="M67.32,110a2.66,2.66,0,0,1-1.22,2.36,3.87,3.87,0,0,1-1.25.53,6.21,6.21,0,0,1-1.43.17,6.53,6.53,0,0,1-1.36-.16,4.23,4.23,0,0,1-1.38-.56,3.4,3.4,0,0,1-1.06-1.09,3.24,3.24,0,0,1-.43-1.75h1.66a2.51,2.51,0,0,0,.21,1.08,1.91,1.91,0,0,0,.57.72,2.28,2.28,0,0,0,.85.4,4.36,4.36,0,0,0,1.07.13,3.34,3.34,0,0,0,.77-.09,2.07,2.07,0,0,0,.68-.29,1.59,1.59,0,0,0,.48-.52,1.48,1.48,0,0,0,.19-.77,1.28,1.28,0,0,0-.21-.76,1.54,1.54,0,0,0-.58-.48,4.59,4.59,0,0,0-.88-.32l-1.12-.28L61.69,108a4.18,4.18,0,0,1-1.07-.47,2.42,2.42,0,0,1-.77-.76,2.17,2.17,0,0,1-.3-1.2,2.66,2.66,0,0,1,.32-1.35,2.72,2.72,0,0,1,.84-.91,3.6,3.6,0,0,1,1.18-.51,5.75,5.75,0,0,1,1.34-.16,6,6,0,0,1,1.44.17,3.38,3.38,0,0,1,1.19.53,2.68,2.68,0,0,1,.82,1A3.55,3.55,0,0,1,67,105.8H65.45a2,2,0,0,0-.18-.88,1.65,1.65,0,0,0-.48-.59,2,2,0,0,0-.71-.33,3.46,3.46,0,0,0-.85-.1,4,4,0,0,0-.72.07,2.31,2.31,0,0,0-.68.24,1.45,1.45,0,0,0-.5.46,1.23,1.23,0,0,0-.19.71,1.06,1.06,0,0,0,.28.76,2.12,2.12,0,0,0,.72.48,6.55,6.55,0,0,0,1,.32l1.13.28q.61.15,1.17.34a3.53,3.53,0,0,1,1,.5,2.32,2.32,0,0,1,.68.79,2.5,2.5,0,0,1,.26,1.2" transform="translate(22.35 25.63)" style="fill:#2b2b2a"/><path d="M79,107.88a6.17,6.17,0,0,1-.32,2,5,5,0,0,1-.93,1.66,4.32,4.32,0,0,1-1.5,1.12,5.18,5.18,0,0,1-4,0,4.39,4.39,0,0,1-1.5-1.12,5,5,0,0,1-.94-1.66,6.46,6.46,0,0,1,0-4,5.07,5.07,0,0,1,.93-1.66,4.32,4.32,0,0,1,1.5-1.12,5.18,5.18,0,0,1,4,0,4.39,4.39,0,0,1,1.5,1.12,5,5,0,0,1,.94,1.66,6.17,6.17,0,0,1,.32,2m-1.66,0a5.56,5.56,0,0,0-.18-1.41,3.64,3.64,0,0,0-.57-1.23,3,3,0,0,0-1-.87,3.11,3.11,0,0,0-2.79,0,3,3,0,0,0-1,.87,3.64,3.64,0,0,0-.57,1.23,5.6,5.6,0,0,0,0,2.82,3.67,3.67,0,0,0,.57,1.23,3,3,0,0,0,1,.87,2.77,2.77,0,0,0,1.4.33,2.81,2.81,0,0,0,1.4-.33,3,3,0,0,0,1-.87,3.67,3.67,0,0,0,.57-1.23,5.55,5.55,0,0,0,.18-1.41" transform="translate(22.35 25.63)" style="fill:#2b2b2a"/><path d="M90,110.65a4,4,0,0,1-2.25,2.13,4.56,4.56,0,0,1-1.68.3,4.69,4.69,0,0,1-2-.41,4.42,4.42,0,0,1-1.49-1.11,4.77,4.77,0,0,1-.93-1.64,6.16,6.16,0,0,1-.32-2,6.35,6.35,0,0,1,.32-2.05,5,5,0,0,1,.94-1.67,4.37,4.37,0,0,1,1.51-1.12,4.91,4.91,0,0,1,2-.41,5.11,5.11,0,0,1,1.55.24,4.15,4.15,0,0,1,1.33.69,3.72,3.72,0,0,1,1,1.12,3.64,3.64,0,0,1,.44,1.51H88.83a2.22,2.22,0,0,0-.3-.91,2.43,2.43,0,0,0-.61-.69,2.89,2.89,0,0,0-.83-.43,3,3,0,0,0-.94-.15,2.76,2.76,0,0,0-1.4.34,3,3,0,0,0-1,.89,4,4,0,0,0-.56,1.24,5.4,5.4,0,0,0-.19,1.41,5.29,5.29,0,0,0,.18,1.37,3.82,3.82,0,0,0,.55,1.22,3,3,0,0,0,.94.88,2.59,2.59,0,0,0,1.35.34,2.77,2.77,0,0,0,1.11-.21,2.41,2.41,0,0,0,.82-.58,3,3,0,0,0,.55-.87,4.32,4.32,0,0,0,.29-1.08h1.63a4.84,4.84,0,0,1-.41,1.67" transform="translate(22.35 25.63)" style="fill:#2b2b2a"/><rect x="115.45" y="128.53" width="1.66" height="9.95" style="fill:#2b2b2a"/><path d="M102.3,112.85v-4.33h-3v4.33H97.63v-7.06a3.12,3.12,0,0,1,.81-2.34,3.25,3.25,0,0,1,2.36-.79,3.21,3.21,0,0,1,2.37.79,3.15,3.15,0,0,1,.79,2.33v7.06Zm0-6.8a4.79,4.79,0,0,0-.06-.79,2,2,0,0,0-.23-.66,1.2,1.2,0,0,0-.46-.46,1.54,1.54,0,0,0-.75-.17,1.48,1.48,0,0,0-.75.17,1.27,1.27,0,0,0-.46.46,1.92,1.92,0,0,0-.23.66,4.71,4.71,0,0,0-.06.77v1.17h3Z" transform="translate(22.35 25.63)" style="fill:#2b2b2a"/><path d="M115.27,110.65a4,4,0,0,1-2.25,2.13,4.56,4.56,0,0,1-1.68.3,4.69,4.69,0,0,1-2-.41,4.44,4.44,0,0,1-1.49-1.11,4.8,4.8,0,0,1-.93-1.64,6.16,6.16,0,0,1-.32-2,6.35,6.35,0,0,1,.32-2.05,5,5,0,0,1,.94-1.67,4.37,4.37,0,0,1,1.51-1.12,4.91,4.91,0,0,1,2-.41,5.11,5.11,0,0,1,1.55.24,4.15,4.15,0,0,1,1.33.69,3.75,3.75,0,0,1,1,1.12,3.64,3.64,0,0,1,.44,1.51h-1.63a2.28,2.28,0,0,0-.3-.91,2.4,2.4,0,0,0-.62-.69,2.85,2.85,0,0,0-.83-.43,3,3,0,0,0-.94-.15,2.76,2.76,0,0,0-1.4.34,3,3,0,0,0-1,.89,4,4,0,0,0-.56,1.24,5.4,5.4,0,0,0-.19,1.41,5.29,5.29,0,0,0,.18,1.37,3.86,3.86,0,0,0,.55,1.22,3,3,0,0,0,.94.88,2.6,2.6,0,0,0,1.35.34,2.77,2.77,0,0,0,1.11-.21,2.41,2.41,0,0,0,.82-.58,3,3,0,0,0,.55-.87,4.32,4.32,0,0,0,.29-1.08h1.63a4.84,4.84,0,0,1-.41,1.67" transform="translate(22.35 25.63)" style="fill:#2b2b2a"/><rect x="140.68" y="128.53" width="1.66" height="9.95" style="fill:#2b2b2a"/><path d="M132.17,107.88a6.17,6.17,0,0,1-.32,2,5,5,0,0,1-.93,1.66,4.29,4.29,0,0,1-1.5,1.12,5.18,5.18,0,0,1-4,0,4.39,4.39,0,0,1-1.5-1.12,4.94,4.94,0,0,1-.94-1.66,6.46,6.46,0,0,1,0-4,5,5,0,0,1,.93-1.66,4.32,4.32,0,0,1,1.5-1.12,5.18,5.18,0,0,1,4,0,4.41,4.41,0,0,1,1.5,1.12,5,5,0,0,1,.94,1.66,6.17,6.17,0,0,1,.32,2m-1.66,0a5.55,5.55,0,0,0-.18-1.41,3.67,3.67,0,0,0-.57-1.23,3,3,0,0,0-1-.87,2.77,2.77,0,0,0-1.39-.33,2.81,2.81,0,0,0-1.4.33,3,3,0,0,0-1,.87,3.67,3.67,0,0,0-.57,1.23,5.6,5.6,0,0,0,0,2.82,3.64,3.64,0,0,0,.57,1.23,3,3,0,0,0,1,.87,2.77,2.77,0,0,0,1.4.33,2.8,2.8,0,0,0,1.4-.33,3,3,0,0,0,1-.87,3.64,3.64,0,0,0,.57-1.23,5.57,5.57,0,0,0,.18-1.41M127,102.3H126l1.6-2h1.64Z" transform="translate(22.35 25.63)" style="fill:#2b2b2a"/><path d="M139.47,112.85V106a4.79,4.79,0,0,0-.06-.79,1.92,1.92,0,0,0-.23-.66,1.21,1.21,0,0,0-.46-.45A1.52,1.52,0,0,0,138,104a1.5,1.5,0,0,0-.75.17,1.26,1.26,0,0,0-.46.46,1.92,1.92,0,0,0-.23.66,4.71,4.71,0,0,0-.06.77v6.81h-1.66v-7.06a3.12,3.12,0,0,1,.81-2.33,3.92,3.92,0,0,1,4.72,0,3.15,3.15,0,0,1,.79,2.33v7.06Z" transform="translate(22.35 25.63)" style="fill:#2b2b2a"/><path d="M158.05,110.65a4,4,0,0,1-2.25,2.13,4.56,4.56,0,0,1-1.68.3,4.69,4.69,0,0,1-2-.41,4.42,4.42,0,0,1-1.49-1.11,4.8,4.8,0,0,1-.93-1.64,6.16,6.16,0,0,1-.32-2,6.35,6.35,0,0,1,.32-2.05,5,5,0,0,1,.94-1.67,4.37,4.37,0,0,1,1.51-1.12,4.91,4.91,0,0,1,2-.41,5.11,5.11,0,0,1,1.55.24,4.15,4.15,0,0,1,1.33.69,3.75,3.75,0,0,1,1,1.12,3.64,3.64,0,0,1,.44,1.51h-1.63a2.25,2.25,0,0,0-.3-.91,2.43,2.43,0,0,0-.61-.69,2.89,2.89,0,0,0-.83-.43,3,3,0,0,0-.94-.15,2.76,2.76,0,0,0-1.4.34,3,3,0,0,0-1,.89,4,4,0,0,0-.56,1.24,5.4,5.4,0,0,0-.19,1.41,5.29,5.29,0,0,0,.18,1.37,3.86,3.86,0,0,0,.55,1.22,3,3,0,0,0,.94.88,2.6,2.6,0,0,0,1.35.34,2.75,2.75,0,0,0,1.11-.21,2.4,2.4,0,0,0,.82-.58,3,3,0,0,0,.55-.87,4.32,4.32,0,0,0,.29-1.08h1.63a4.84,4.84,0,0,1-.41,1.67" transform="translate(22.35 25.63)" style="fill:#2b2b2a"/><rect x="183.46" y="128.53" width="1.66" height="9.95" style="fill:#2b2b2a"/><polygon points="192.19 138.48 190.48 138.48 187.24 128.53 188.94 128.53 191.33 135.56 193.72 128.53 195.42 128.53 192.19 138.48" style="fill:#2b2b2a"/><rect x="197.55" y="128.53" width="1.66" height="9.95" style="fill:#2b2b2a"/><path d="M186.74,111.77a1.41,1.41,0,0,1-.24.55,1.18,1.18,0,0,1-.5.39,2.17,2.17,0,0,1-.86.14h-5.42V102.9h1.66v8.54h3.3a1.71,1.71,0,0,0,.51-.06.74.74,0,0,0,.3-.17.52.52,0,0,0,.14-.27,1.6,1.6,0,0,0,0-.35l1.12.55a3.16,3.16,0,0,1-.06.64" transform="translate(22.35 25.63)" style="fill:#2b2b2a"/><line x1="212.61" y1="133.73" x2="259.09" y2="133.73" style="fill:none;stroke:#2b2b2a;stroke-miterlimit:10;stroke-width:0.25px"/><line x1="22.68" y1="133.73" x2="68.75" y2="133.73" style="fill:none;stroke:#2b2b2a;stroke-miterlimit:10;stroke-width:0.25px"/></g></g></g></g></g></svg>